{
    "asset" : {
        "generator" : "Khronos glTF Blender I/O v3.2.40",
        "version" : "2.0"
    },
    "scene" : 0,
    "scenes" : [
        {
            "name" : "Scene",
            "nodes" : [
                0,
                1
            ]
        }
    ],
    "nodes" : [
        {
            "mesh" : 0,
            "name" : "AURA",
            "rotation" : [
                0.7071068286895752,
                0,
                0,
                0.7071067094802856
            ]
        },
        {
            "mesh" : 1,
            "name" : "STELLA_LOGO_3D003",
            "rotation" : [
                0.7071068286895752,
                0,
                0,
                0.7071067094802856
            ]
        }
    ],
    "materials" : [
        {
            "doubleSided" : true,
            "name" : "wire_224198087",
            "pbrMetallicRoughness" : {
                "baseColorFactor" : [
                    0.8784000277519226,
                    0.7764999866485596,
                    0.34119999408721924,
                    1
                ],
                "metallicFactor" : 0,
                "roughnessFactor" : 0.8211145401000977
            }
        },
        {
            "doubleSided" : true,
            "name" : "wire_227184153",
            "pbrMetallicRoughness" : {
                "baseColorFactor" : [
                    0.8902000188827515,
                    0.7215999960899353,
                    0.6000000238418579,
                    1
                ],
                "metallicFactor" : 0,
                "roughnessFactor" : 0.8211145401000977
            }
        }
    ],
    "meshes" : [
        {
            "name" : "AURA",
            "primitives" : [
                {
                    "attributes" : {
                        "POSITION" : 0,
                        "NORMAL" : 1,
                        "TEXCOORD_0" : 2
                    },
                    "indices" : 3,
                    "material" : 0
                }
            ]
        },
        {
            "name" : "STELLA_LOGO_3D003",
            "primitives" : [
                {
                    "attributes" : {
                        "POSITION" : 4,
                        "NORMAL" : 5,
                        "TEXCOORD_0" : 6
                    },
                    "indices" : 7,
                    "material" : 1
                }
            ]
        }
    ],
    "accessors" : [
        {
            "bufferView" : 0,
            "componentType" : 5126,
            "count" : 146934,
            "max" : [
                40.117000579833984,
                77.64630126953125,
                0
            ],
            "min" : [
                -54.79679870605469,
                -89.2489013671875,
                -200.5395965576172
            ],
            "type" : "VEC3"
        },
        {
            "bufferView" : 1,
            "componentType" : 5126,
            "count" : 146934,
            "type" : "VEC3"
        },
        {
            "bufferView" : 2,
            "componentType" : 5126,
            "count" : 146934,
            "type" : "VEC2"
        },
        {
            "bufferView" : 3,
            "componentType" : 5125,
            "count" : 192594,
            "type" : "SCALAR"
        },
        {
            "bufferView" : 4,
            "componentType" : 5126,
            "count" : 15164,
            "max" : [
                31.466100692749023,
                -73.82879638671875,
                -197.88800048828125
            ],
            "min" : [
                23.883499145507812,
                -80.502197265625,
                -198.335205078125
            ],
            "type" : "VEC3"
        },
        {
            "bufferView" : 5,
            "componentType" : 5126,
            "count" : 15164,
            "type" : "VEC3"
        },
        {
            "bufferView" : 6,
            "componentType" : 5126,
            "count" : 15164,
            "type" : "VEC2"
        },
        {
            "bufferView" : 7,
            "componentType" : 5123,
            "count" : 42612,
            "type" : "SCALAR"
        }
    ],
    "bufferViews" : [
        {
            "buffer" : 0,
            "byteLength" : 1763208,
            "byteOffset" : 0
        },
        {
            "buffer" : 0,
            "byteLength" : 1763208,
            "byteOffset" : 1763208
        },
        {
            "buffer" : 0,
            "byteLength" : 1175472,
            "byteOffset" : 3526416
        },
        {
            "buffer" : 0,
            "byteLength" : 770376,
            "byteOffset" : 4701888
        },
        {
            "buffer" : 0,
            "byteLength" : 181968,
            "byteOffset" : 5472264
        },
        {
            "buffer" : 0,
            "byteLength" : 181968,
            "byteOffset" : 5654232
        },
        {
            "buffer" : 0,
            "byteLength" : 121312,
            "byteOffset" : 5836200
        },
        {
            "buffer" : 0,
            "byteLength" : 85224,
            "byteOffset" : 5957512
        }
    ],
    "buffers" : [
        {
            "byteLength" : 6042736,
            "uri" : "Aura.bin"
        }
    ]
}
